<svg width="590" height="466" viewBox="0 0 590 466" fill="none" xmlns="http://www.w3.org/2000/svg">
<g clip-path="url(#clip0_6_692)">
<path d="M134.265 238.945C153.734 238.945 169.518 223.169 169.518 203.707C169.518 184.246 153.734 168.47 134.265 168.47C114.795 168.47 99.0112 184.246 99.0112 203.707C99.0112 223.169 114.795 238.945 134.265 238.945Z" fill="#FF6584"/>
<path d="M352.664 243.606C352.664 312.98 311.403 337.203 260.506 337.203C209.608 337.203 168.347 312.98 168.347 243.606C168.347 174.231 260.506 85.9762 260.506 85.9762C260.506 85.9762 352.664 174.231 352.664 243.606Z" fill="#4E944F"/>
<path d="M257.149 326.591L258.092 268.531L297.373 196.702L258.24 259.423L258.665 233.317L285.736 181.349L258.777 226.408L259.54 179.455L288.529 138.083L259.66 172.072L260.137 85.9763L257.14 199.951L257.387 195.249L227.913 150.156L256.914 204.275L254.168 256.714L254.086 255.322L220.109 207.868L253.984 260.239L253.64 266.797L253.578 266.896L253.606 267.434L246.639 400.476H255.948L257.065 331.757L290.856 279.514L257.149 326.591Z" fill="#3F3D56"/>
<path d="M441.584 309.131C441.584 378.505 400.324 402.728 349.426 402.728C298.528 402.728 257.268 378.505 257.268 309.131C257.268 239.756 349.426 151.501 349.426 151.501C349.426 151.501 441.584 239.756 441.584 309.131Z" fill="#3F3D56"/>
<path d="M346.069 392.116L347.013 334.056L386.293 262.227L347.161 324.947L347.585 298.842L374.657 246.874L347.697 291.933V291.933L348.46 244.979L377.449 203.607L348.58 237.597L349.057 151.5L346.06 265.476L346.307 260.774L316.833 215.681L345.834 269.8L343.088 322.238L343.006 320.846L309.029 273.393L342.903 325.764L342.56 332.322L342.498 332.42L342.526 332.959L335.559 466H344.868L345.985 397.281L379.776 345.039L346.069 392.116Z" fill="#F2F2F2"/>
<path d="M268.287 309.131C268.287 378.505 227.027 402.728 176.129 402.728C125.231 402.728 83.9707 378.505 83.9707 309.131C83.9707 239.756 176.129 151.501 176.129 151.501C176.129 151.501 268.287 239.756 268.287 309.131Z" fill="#3F3D56"/>
<path d="M172.772 392.116L173.716 334.056L212.996 262.227L173.864 324.947L174.288 298.842L201.36 246.874L174.401 291.933V291.933L175.163 244.979L204.152 203.607L175.283 237.597L175.76 151.5L172.764 265.476L173.01 260.774L143.537 215.681L172.537 269.8L169.791 322.238L169.71 320.846L135.732 273.393L169.607 325.764L169.263 332.322L169.202 332.42L169.23 332.959L162.262 466H171.571L172.688 397.281L206.48 345.039L172.772 392.116Z" fill="#F2F2F2"/>
<path d="M262.852 465.414C218.774 465.414 176.06 450.138 141.987 422.188C107.915 394.238 84.592 355.344 75.9927 312.133C67.3935 268.921 74.0499 224.067 94.828 185.211C115.606 146.356 149.22 115.903 189.942 99.0432C230.665 82.1829 275.976 79.9578 318.156 92.7471C360.336 105.536 396.774 132.549 421.262 169.181C445.751 205.814 456.774 249.8 452.454 293.646C448.133 337.492 428.737 378.484 397.569 409.637C379.919 427.376 358.924 441.439 335.8 451.013C312.676 460.587 287.881 465.482 262.852 465.414ZM262.852 86.0018C158.602 86.0018 73.7875 170.777 73.7875 274.981C73.7875 379.184 158.602 463.96 262.852 463.96C367.102 463.96 451.917 379.184 451.917 274.981C451.917 170.777 367.102 86.0018 262.852 86.0018Z" fill="#2F2E41"/>
<path d="M418.638 383.627V464.721H107.094V383.627L262.866 302.532L263.19 302.701L418.638 383.627Z" fill="#F2F2F2"/>
<path opacity="0.1" d="M418.638 383.627V464.721H263.19V302.701L418.638 383.627Z" fill="black"/>
<path d="M249.56 352.162L237.878 356.571V339.187L249.56 334.069V352.162Z" fill="#3F3D56"/>
<path d="M120.399 400.819L116.505 402.291V391.736L120.399 390.016V400.819Z" fill="#3F3D56"/>
<path d="M134.029 396.277L129.486 397.98V386.546L134.029 384.553V396.277Z" fill="#3F3D56"/>
<path d="M148.957 390.439L143.765 392.391V380.059L148.957 377.774V390.439Z" fill="#3F3D56"/>
<path d="M167.131 383.302L160.64 385.751V372.922L167.131 370.076V383.302Z" fill="#3F3D56"/>
<path d="M189.198 374.869L181.41 377.811V363.84L189.198 360.425V374.869Z" fill="#3F3D56"/>
<path d="M215.81 365.137L206.723 368.559V352.811L215.81 348.829V365.137Z" fill="#3F3D56"/>
<path d="M120.399 422.228L116.505 423.207V412.497L120.399 411.266V422.228Z" fill="#3F3D56"/>
<path d="M134.029 418.984L129.486 420.121V408.604L134.029 407.173V418.984Z" fill="#3F3D56"/>
<path d="M148.957 415.091L143.765 416.396V404.063L148.957 402.426V415.091Z" fill="#3F3D56"/>
<path d="M167.131 410.551L160.64 412.18V398.873L167.131 396.831V410.551Z" fill="#3F3D56"/>
<path d="M189.198 404.711L181.41 406.676V392.385L189.198 389.936V404.711Z" fill="#3F3D56"/>
<path d="M215.81 398.224L206.074 400.672V384.6L215.81 381.538V398.224Z" fill="#3F3D56"/>
<path d="M249.56 389.79L237.878 392.726V374.869L249.56 371.205V389.79Z" fill="#3F3D56"/>
<path d="M249.56 426.769L237.878 428.256V410.551L249.56 408.342V426.769Z" fill="#3F3D56"/>
<path d="M120.399 442.988L116.505 443.489V433.257L120.399 432.515V442.988Z" fill="#3F3D56"/>
<path d="M134.029 441.691L129.486 442.263V431.311L134.029 430.459V441.691Z" fill="#3F3D56"/>
<path d="M148.957 439.744L143.765 440.401V428.067L148.957 427.078V439.744Z" fill="#3F3D56"/>
<path d="M167.131 437.149L160.64 437.978V424.823L167.131 423.586V437.149Z" fill="#3F3D56"/>
<path d="M189.198 434.554L181.41 435.542V420.931L189.198 419.448V434.554Z" fill="#3F3D56"/>
<path d="M215.81 431.311L206.074 432.541V416.389L215.81 414.542V431.311Z" fill="#3F3D56"/>
<path d="M405.981 400.819L409.876 402.291V391.736L405.981 390.016V400.819Z" fill="#3F3D56"/>
<path d="M392.351 396.277L396.895 397.98V386.546L392.351 384.553V396.277Z" fill="#3F3D56"/>
<path d="M377.423 390.439L382.616 392.391V380.059L377.423 377.774V390.439Z" fill="#3F3D56"/>
<path d="M359.25 383.302L365.74 385.751V372.922L359.25 370.076V383.302Z" fill="#3F3D56"/>
<path d="M337.183 374.869L344.971 377.811V363.84L337.183 360.425V374.869Z" fill="#3F3D56"/>
<path d="M310.571 365.137L319.658 368.559V352.811L310.571 348.829V365.137Z" fill="#3F3D56"/>
<path d="M405.981 422.228L409.876 423.207V412.497L405.981 411.266V422.228Z" fill="#3F3D56"/>
<path d="M392.351 418.984L396.895 420.121V408.604L392.351 407.173V418.984Z" fill="#3F3D56"/>
<path d="M377.423 415.091L382.616 416.396V404.063L377.423 402.426V415.091Z" fill="#3F3D56"/>
<path d="M359.25 410.551L365.74 412.18V398.873L359.25 396.831V410.551Z" fill="#3F3D56"/>
<path d="M337.183 404.711L344.971 406.676V392.385L337.183 389.936V404.711Z" fill="#3F3D56"/>
<path d="M310.571 398.224L320.307 400.672V384.6L310.571 381.538V398.224Z" fill="#3F3D56"/>
<path d="M276.82 389.79L288.503 392.726V374.869L276.82 371.205V389.79Z" fill="#3F3D56"/>
<path d="M276.82 426.769L288.503 428.256V410.551L276.82 408.342V426.769Z" fill="#3F3D56"/>
<path d="M405.981 442.988L409.876 443.489V433.257L405.981 432.515V442.988Z" fill="#3F3D56"/>
<path d="M392.351 441.691L396.895 442.263V431.311L392.351 430.459V441.691Z" fill="#3F3D56"/>
<path d="M377.423 439.744L382.616 440.401V428.067L377.423 427.078V439.744Z" fill="#3F3D56"/>
<path d="M359.25 437.149L365.74 437.978V424.823L359.25 423.586V437.149Z" fill="#3F3D56"/>
<path d="M337.183 434.554L344.971 435.542V420.931L337.183 419.448V434.554Z" fill="#3F3D56"/>
<path d="M310.571 431.311L320.307 432.541V416.389L310.571 414.542V431.311Z" fill="#3F3D56"/>
<path d="M287.854 356.704L276.172 352.3V333.997L287.854 339.117V356.704Z" fill="#3F3D56"/>
<path d="M397.554 450.281H396.602V465.511H397.554V450.281Z" fill="#2F2E41"/>
<path d="M408.774 454.427H408.099V465.219H408.774V454.427Z" fill="#2F2E41"/>
<path d="M418.744 455.745H418.151V465.23H418.744V455.745Z" fill="#2F2E41"/>
<path d="M369.634 445.453V465.046L356.978 465.027L344.322 465.007V442.988L356.978 444.221L369.634 445.453Z" fill="#3F3D56"/>
<path d="M156.746 465.046L182.059 465.006V442.988L156.746 445.451V465.046Z" fill="#3F3D56"/>
<path d="M567.15 464.397H0V465.695H567.15V464.397Z" fill="#2F2E41"/>
<path opacity="0.1" d="M369.635 445.453V465.046L356.979 465.027V444.221L369.635 445.453Z" fill="black"/>
<path d="M261.568 447.205H260.27V465.37H261.568V447.205Z" fill="#2F2E41"/>
<path d="M268.41 440.738C268.41 447.103 265.008 452.415 260.919 452.598C256.943 452.775 253.8 448.012 253.8 441.963C253.8 435.914 261.568 419.308 261.568 419.308C261.568 419.308 268.41 434.373 268.41 440.738Z" fill="#4E944F"/>
<path d="M108.854 453.027H108.08V463.862H108.854V453.027Z" fill="#2F2E41"/>
<path d="M112.935 449.169C112.935 452.966 110.906 456.135 108.467 456.243C106.095 456.349 104.221 453.508 104.221 449.9C104.221 446.292 108.854 436.387 108.854 436.387C108.854 436.387 112.935 445.373 112.935 449.169Z" fill="#4E944F"/>
<path d="M402.316 450.882C402.316 454.493 400.039 457.314 397.078 457.175C393.934 457.027 391.239 453.637 391.239 449.612C391.239 445.586 397.078 435.527 397.078 435.527C397.078 435.527 402.316 447.271 402.316 450.882Z" fill="#4E944F"/>
<path d="M412.148 454.852C412.148 457.411 410.535 459.41 408.437 459.311C406.209 459.207 404.299 456.805 404.299 453.952C404.299 451.099 408.437 443.972 408.437 443.972C408.437 443.972 412.148 452.294 412.148 454.852Z" fill="#4E944F"/>
<path d="M421.71 456.119C421.71 458.368 420.292 460.124 418.448 460.038C416.49 459.946 414.811 457.835 414.811 455.328C414.811 452.82 418.448 446.556 418.448 446.556C418.448 446.556 421.71 453.87 421.71 456.119Z" fill="#4E944F"/>
<path d="M426.319 104.512C426.319 104.512 420.001 123.456 423.511 127.666C427.021 131.876 402.453 115.037 402.453 115.037L415.79 99.601L426.319 104.512Z" fill="#A0616A"/>
<path d="M411.912 104.482C429.318 104.482 443.428 90.3778 443.428 72.9797C443.428 55.5816 429.318 41.4777 411.912 41.4777C394.506 41.4777 380.396 55.5816 380.396 72.9797C380.396 90.3778 394.506 104.482 411.912 104.482Z" fill="#2F2E41"/>
<path d="M534.419 317.809L518.275 330.438L509.149 315.704L525.294 304.478L534.419 317.809Z" fill="#A0616A"/>
<path d="M511.606 412.88L515.817 433.227L527.751 449.365C527.751 449.365 560.04 459.188 538.28 464.099C516.519 469.011 511.606 460.591 511.606 460.591L496.163 447.26V465.502H486.335L484.23 439.542C484.23 439.542 482.826 431.824 489.143 423.404L490.547 410.775L511.606 412.88Z" fill="#2F2E41"/>
<path d="M430.18 160.994L435.795 193.269C435.795 193.269 495.461 186.954 499.673 198.882C503.884 210.81 505.288 214.318 505.288 214.318L493.355 218.528L487.74 208.003C486.029 207.398 484.213 207.148 482.402 207.268C480.592 207.389 478.825 207.878 477.21 208.705C471.595 211.511 422.458 218.528 418.948 209.407C415.439 200.285 405.611 166.607 405.611 166.607L420.352 154.679L430.18 160.994Z" fill="#A0616A"/>
<path opacity="0.1" d="M430.18 160.994L435.795 193.269C435.795 193.269 495.461 186.954 499.673 198.882C503.884 210.81 505.288 214.318 505.288 214.318L493.355 218.528L487.74 208.003C486.029 207.398 484.213 207.148 482.402 207.268C480.592 207.389 478.825 207.878 477.21 208.705C471.595 211.511 422.458 218.528 418.948 209.407C415.439 200.285 405.611 166.607 405.611 166.607L420.352 154.679L430.18 160.994Z" fill="black"/>
<path d="M463.171 254.311L468.085 271.15L480.72 335.7C480.72 335.7 482.124 383.411 484.23 389.024C486.336 394.638 486.336 395.339 484.23 397.444C482.124 399.549 477.912 406.565 484.23 410.775C490.547 414.985 513.01 419.896 513.712 414.985C514.414 410.073 514.414 402.355 513.712 398.847C513.01 395.339 515.818 340.612 515.818 340.612L507.394 257.118L478.614 243.786L463.171 254.311Z" fill="#2F2E41"/>
<path opacity="0.1" d="M463.171 254.311L468.085 271.15L480.72 335.7C480.72 335.7 482.124 383.411 484.23 389.024C486.336 394.638 486.336 395.339 484.23 397.444C482.124 399.549 477.912 406.565 484.23 410.775C490.547 414.985 513.01 419.896 513.712 414.985C514.414 410.073 514.414 402.355 513.712 398.847C513.01 395.339 515.818 340.612 515.818 340.612L507.394 257.118L478.614 243.786L463.171 254.311Z" fill="black"/>
<path d="M493.355 188.358L508.798 217.826C508.798 217.826 597.244 257.118 589.522 273.255C581.801 289.393 538.982 319.563 538.982 319.563C538.982 319.563 536.876 331.491 530.558 327.982C524.241 324.474 508.798 306.232 510.202 304.127C511.606 302.022 516.519 297.111 518.625 297.812C520.731 298.514 545.299 279.57 545.299 279.57L503.182 269.045C503.182 269.045 452.642 267.642 449.834 243.787C447.026 219.931 449.834 215.721 449.834 215.721L446.324 208.003L475.104 190.462L493.355 188.358Z" fill="#2F2E41"/>
<path d="M515.115 304.829L500.375 318.16C500.375 318.16 487.739 312.547 480.018 314.652C472.297 316.756 458.959 318.16 458.959 318.16L461.065 330.087L478.975 326.785L464.575 346.927C464.575 346.927 464.575 378.5 473.7 378.5C482.826 378.5 480.018 359.556 480.018 359.556L508.096 337.805C508.096 337.805 522.135 332.192 523.539 332.192C524.943 332.192 515.115 304.829 515.115 304.829Z" fill="#2F2E41"/>
<path d="M423.511 110.125C436.692 110.125 447.377 99.445 447.377 86.2699C447.377 73.0949 436.692 62.4144 423.511 62.4144C410.33 62.4144 399.645 73.0949 399.645 86.2699C399.645 99.445 410.33 110.125 423.511 110.125Z" fill="#A0616A"/>
<path d="M399.995 104.863C399.995 104.863 411.227 102.057 414.736 104.863C418.246 107.67 418.948 113.984 423.862 114.686C428.775 115.388 432.987 115.388 433.689 116.089C434.391 116.791 450.536 136.437 450.536 136.437C450.536 136.437 460.363 142.05 462.469 149.768C464.575 157.486 485.633 183.446 488.441 186.253C491.249 189.059 470.191 203.092 463.171 208.003C456.152 212.915 435.795 215.02 429.477 203.793C423.16 192.567 388.764 119.597 399.995 104.863Z" fill="#575A89"/>
<path d="M426.67 150.469L432.285 182.745C432.285 182.745 491.951 176.43 496.163 188.358C500.375 200.285 501.779 203.794 501.779 203.794L489.845 208.003L484.23 197.479C482.519 196.873 480.703 196.623 478.893 196.744C477.082 196.865 475.315 197.353 473.7 198.18C468.085 200.987 418.948 208.003 415.439 198.882C411.929 189.761 402.102 156.083 402.102 156.083L416.843 144.155L426.67 150.469Z" fill="#A0616A"/>
<path d="M413.255 107.815C413.255 107.815 430.179 143.453 428.775 153.276C427.372 163.099 422.458 156.082 422.458 156.082C422.458 156.082 416.14 146.26 413.333 151.873C410.525 157.486 407.015 165.204 404.207 164.502C401.399 163.8 385.956 111.88 394.38 106.968C402.803 102.057 413.255 107.815 413.255 107.815Z" fill="#575A89"/>
<path d="M377.769 63.004C395.175 63.004 409.285 48.9001 409.285 31.502C409.285 14.1039 395.175 0 377.769 0C360.363 0 346.253 14.1039 346.253 31.502C346.253 48.9001 360.363 63.004 377.769 63.004Z" fill="#2F2E41"/>
<path d="M350.585 57.5877C354.664 60.5347 359.39 62.4623 364.367 63.2093C369.344 63.9563 374.428 63.501 379.193 61.8815C383.959 60.262 388.266 57.5253 391.757 53.9005C395.247 50.2757 397.818 45.8681 399.254 41.0465C398.711 45.3674 397.277 49.5288 395.043 53.2678C392.809 57.0068 389.824 60.2423 386.276 62.77C382.728 65.2977 378.695 67.0627 374.43 67.9535C370.165 68.8444 365.762 68.8418 361.498 67.9458C357.235 67.0499 353.203 65.2801 349.658 62.7482C346.113 60.2163 343.132 56.9773 340.903 53.2356C338.673 49.494 337.244 45.331 336.706 41.0094C336.168 36.6879 336.531 32.3017 337.774 28.1278C337.068 33.7354 337.885 39.4296 340.139 44.6131C342.393 49.7965 346.001 54.2781 350.585 57.5877Z" fill="#2F2E41"/>
<path d="M405.429 101.331C418.193 101.331 428.541 90.9886 428.541 78.23C428.541 65.4714 418.193 55.1285 405.429 55.1285C392.664 55.1285 382.317 65.4714 382.317 78.23C382.317 90.9886 392.664 101.331 405.429 101.331Z" fill="#2F2E41"/>
<path d="M422.943 85.5804C434.256 85.5804 443.428 78.4109 443.428 69.5669C443.428 60.7228 434.256 53.5533 422.943 53.5533C411.629 53.5533 402.457 60.7228 402.457 69.5669C402.457 78.4109 411.629 85.5804 422.943 85.5804Z" fill="#2F2E41"/>
<path d="M423.862 96.7945C426.382 96.7945 428.425 93.182 428.425 88.7258C428.425 84.2695 426.382 80.657 423.862 80.657C421.342 80.657 419.299 84.2695 419.299 88.7258C419.299 93.182 421.342 96.7945 423.862 96.7945Z" fill="#A0616A"/>
<path d="M486.493 207.697C486.493 207.697 498.92 200.57 501.227 202.357C503.534 204.144 504.559 209.736 504.559 209.736L490.197 215.37L485.985 207.652L486.493 207.697Z" fill="#2F2E41"/>
</g>
<defs>
<clipPath id="clip0_6_692">
<rect width="590" height="466" fill="white"/>
</clipPath>
</defs>
</svg>
