<svg width="772" height="474" viewBox="0 0 772 474" fill="none" xmlns="http://www.w3.org/2000/svg">
<g clip-path="url(#clip0_6_779)">
<path opacity="0.1" d="M772 304.439C772.013 317.281 770.457 330.078 767.366 342.544C766.326 346.744 765.118 350.857 763.741 354.883C762.057 359.853 760.106 364.728 757.895 369.487C756.781 371.894 755.603 374.254 754.362 376.566C754.382 389.735 751.666 402.766 746.385 414.834C736.839 436.487 719.816 453.995 698.419 464.166C685.041 470.538 670.421 473.889 655.599 473.98H146.552C123.903 474.029 101.646 468.089 82.0424 456.767L81.7409 456.596C78.9487 454.965 76.2264 453.238 73.574 451.415C67.6062 447.299 61.9995 442.685 56.8142 437.623C49.7959 430.776 43.6116 423.127 38.3895 414.834C26.1247 395.395 19.6275 372.885 19.6503 349.911C7.22952 328.156 -0.0131836 302.097 -0.0131836 274.094C-0.0131836 238.763 11.4965 206.534 30.4062 182.136C34.3485 177.039 38.6668 172.243 43.3251 167.788C47.9213 163.38 52.8615 159.343 58.0989 155.717C62.2891 152.812 66.6685 150.189 71.2078 147.865C73.1021 146.904 75.0029 145.994 76.9364 145.15C78.6341 144.398 80.3513 143.698 82.0883 143.037C84.1726 142.247 86.2831 141.521 88.4199 140.858C90.5567 140.195 92.665 139.615 94.745 139.118C97.8037 138.372 100.915 137.766 104.079 137.299C106.7 136.913 109.322 136.645 111.944 136.442C114.028 136.285 116.132 136.2 118.249 136.174H119.396C121.73 136.174 124.05 136.265 126.351 136.422C126.593 135.938 126.855 135.447 127.098 134.97C128.016 133.223 128.966 131.482 129.923 129.781C129.921 129.766 129.921 129.751 129.923 129.735C130.087 129.435 130.251 129.14 130.421 128.852C131.194 127.459 132.001 126.078 132.827 124.711C133.207 124.056 133.58 123.441 133.967 122.826C134.049 122.674 134.139 122.525 134.236 122.381C134.629 121.727 135.029 121.073 135.435 120.419C137.458 117.191 139.562 114.02 141.747 110.906L142.304 110.107C142.645 109.623 142.96 109.152 143.34 108.668C144.244 107.405 145.175 106.136 146.112 104.893C146.768 104.003 147.423 103.12 148.131 102.276C149.835 100.095 151.583 97.9139 153.375 95.733C155.166 93.5521 157.028 91.3996 158.959 89.2754C159.221 88.9809 159.484 88.6931 159.759 88.4052L162.558 85.3563C162.695 85.2123 162.813 85.0815 162.944 84.9506C163.279 84.5908 163.6 84.2309 163.96 83.8842C165.461 82.2943 167.002 80.7371 168.548 79.1865C176.421 71.3597 184.807 64.0659 193.652 57.3535C193.999 57.0787 194.353 56.8169 194.701 56.5552C196.366 55.3056 198.057 54.069 199.748 52.8521C209.049 46.1912 218.772 40.1375 228.856 34.7287C229.551 34.3296 230.259 33.9567 230.973 33.5903C240.014 28.8162 249.311 24.5438 258.823 20.7928C264.008 18.7449 269.31 16.8213 274.646 15.0613C278.198 13.8967 281.764 12.791 285.376 11.7507C291.021 10.1281 296.706 8.67348 302.43 7.38675C319.294 3.60954 336.451 1.27622 353.713 0.412212C358.956 0.146141 364.259 0.0087461 369.62 2.24775e-05C395.491 -0.0341658 421.261 3.21973 446.308 9.68324C446.567 10.0739 446.921 10.3924 447.337 10.6087C447.753 10.825 448.218 10.9321 448.687 10.9198H450.889C451.846 11.1815 452.797 11.4432 453.754 11.718C459.098 13.2534 464.365 14.9305 469.556 16.7494L470.867 17.2204C483.68 21.7682 496.146 27.2348 508.169 33.5772C519.007 39.2809 529.442 45.7164 539.401 52.839C540.935 53.9382 542.447 55.0461 543.937 56.1627C545.746 55.0068 547.585 53.8989 549.456 52.839C556.678 48.733 564.349 45.4686 572.318 43.11C588.978 38.1887 606.606 37.5005 623.6 41.1079C645.394 45.7205 665.123 57.1703 681.057 73.4551C687.544 80.1181 693.319 87.4374 698.288 95.2947C698.649 95.8573 699.009 96.4265 699.357 97.0023C703.627 103.957 707.298 111.26 710.329 118.835C710.44 119.117 710.552 119.378 710.65 119.653C713.448 126.746 715.705 134.04 717.401 141.473C717.48 141.853 717.572 142.226 717.65 142.605C719.237 149.798 720.314 157.094 720.875 164.438C720.875 164.7 720.875 164.968 720.927 165.243C721.203 169.042 721.343 172.88 721.347 176.758C721.347 180.226 721.229 183.667 721.013 187.082C721.013 187.455 720.96 187.841 720.927 188.227C720.869 189.215 720.783 190.19 720.698 191.185C725.704 195.215 730.389 199.627 734.712 204.381C736.621 206.462 738.469 208.621 740.257 210.859C745.7 217.669 750.485 224.979 754.545 232.692C765.629 253.576 772 278.144 772 304.439Z" fill="#4E944F"/>
<path opacity="0.1" d="M697.934 461.746C697.934 466.214 682.511 470.402 655.599 474H146.551C123.903 474.048 101.646 468.109 82.0422 456.786L81.7407 456.616C89.475 453.803 103.436 451.179 122.438 448.811L123.29 448.706C131.81 447.666 141.334 446.678 151.743 445.742C152.005 445.742 152.274 445.703 152.536 445.67C160.794 444.937 169.58 444.25 178.891 443.609C179.186 443.609 179.475 443.557 179.77 443.544C183.361 443.286 187.028 443.042 190.768 442.811L192.21 442.719C219.444 441.031 250.401 439.683 283.973 438.794H284.012C288.714 438.663 293.466 438.547 298.268 438.447C303.608 438.32 309.013 438.209 314.484 438.113C318.659 438.022 322.887 437.956 327.127 437.891H327.226C346.358 437.603 366.127 437.459 386.341 437.459C436.325 437.459 483.57 438.368 525.433 440.004H525.551C531.988 440.253 538.306 440.528 544.468 440.809L549.711 441.057C556.663 441.389 563.436 441.744 570.03 442.124C647.57 446.527 697.934 453.678 697.934 461.746Z" fill="#4E944F"/>
<g opacity="0.2">
<path opacity="0.2" d="M445.888 434.456C445.867 435.162 445.786 435.864 445.646 436.556C441.084 435.832 436.496 435.178 431.881 434.593C431.881 434.41 431.881 434.22 431.881 434.031C431.924 432.069 432.49 430.154 433.52 428.482C434.87 426.35 436.922 425.015 439.183 425.087C441.444 425.159 443.404 426.618 444.617 428.823C445.534 430.555 445.973 432.499 445.888 434.456Z" fill="#3F3D56"/>
<path opacity="0.2" d="M446.265 423.276C446.425 418.216 443.416 414.015 439.545 413.893C435.674 413.771 432.405 417.773 432.245 422.833C432.085 427.893 435.093 432.094 438.965 432.216C442.836 432.338 446.105 428.335 446.265 423.276Z" fill="#3F3D56"/>
<path opacity="0.2" d="M446.623 412.074C446.783 407.014 443.774 402.813 439.903 402.691C436.031 402.569 432.763 406.572 432.603 411.632C432.443 416.692 435.451 420.893 439.323 421.015C443.194 421.137 446.462 417.134 446.623 412.074Z" fill="#3F3D56"/>
<path opacity="0.2" d="M446.974 400.873C447.134 395.813 444.125 391.612 440.254 391.49C436.383 391.368 433.114 395.371 432.954 400.431C432.794 405.49 435.802 409.691 439.674 409.813C443.545 409.936 446.813 405.933 446.974 400.873Z" fill="#3F3D56"/>
<path opacity="0.2" d="M447.325 389.671C447.485 384.611 444.476 380.41 440.605 380.288C436.734 380.166 433.465 384.169 433.305 389.229C433.145 394.289 436.153 398.49 440.025 398.612C443.896 398.734 447.165 394.731 447.325 389.671Z" fill="#3F3D56"/>
<path opacity="0.2" d="M416.459 311.95C415.536 310.703 414.703 309.391 413.968 308.024L432.491 305.584L412.552 305.106C410.773 300.894 409.873 296.363 409.908 291.791C409.943 287.219 410.912 282.702 412.755 278.517L439.052 293.205L414.964 274.336C417.394 270.413 420.608 267.032 424.406 264.405C428.204 261.777 432.503 259.96 437.037 259.065C441.57 258.171 446.239 258.22 450.752 259.208C455.266 260.196 459.526 262.102 463.269 264.808C467.011 267.513 470.154 270.96 472.502 274.933C474.85 278.905 476.352 283.318 476.914 287.896C477.477 292.475 477.087 297.119 475.771 301.54C474.454 305.962 472.238 310.064 469.262 313.592C470.697 315.533 471.917 317.624 472.899 319.828L448.589 331.474L474.368 323.734C475.991 329.081 476.253 334.747 475.129 340.221C474.005 345.694 471.531 350.801 467.931 355.08C471.674 360.149 473.912 366.166 474.389 372.445C474.867 378.724 473.565 385.01 470.632 390.585C467.699 396.16 463.253 400.799 457.804 403.97C452.354 407.142 446.12 408.718 439.815 408.52C433.51 408.322 427.388 406.356 422.15 402.848C416.911 399.34 412.767 394.431 410.192 388.683C407.616 382.935 406.714 376.579 407.587 370.343C408.46 364.107 411.073 358.241 415.128 353.418C410.657 347.36 408.355 339.978 408.593 332.457C408.83 324.937 411.594 317.714 416.439 311.95H416.459Z" fill="#4E944F"/>
<path opacity="0.1" d="M475.796 334.575C475.567 342.1 472.795 349.326 467.931 355.08C471.674 360.149 473.912 366.167 474.389 372.445C474.867 378.724 473.565 385.01 470.632 390.585C467.699 396.16 463.253 400.799 457.804 403.97C452.354 407.142 446.12 408.719 439.815 408.52C433.51 408.322 427.388 406.356 422.15 402.848C416.911 399.34 412.767 394.431 410.192 388.683C407.616 382.935 406.714 376.579 407.587 370.343C408.46 364.107 411.073 358.241 415.128 353.418C410.822 347.575 475.914 330.813 475.796 334.575Z" fill="black"/>
</g>
<g opacity="0.2">
<path opacity="0.2" d="M346.26 434.456C346.239 435.162 346.158 435.864 346.018 436.556C341.456 435.832 336.868 435.178 332.253 434.593C332.253 434.41 332.253 434.22 332.253 434.031C332.296 432.069 332.862 430.154 333.892 428.482C335.242 426.35 337.294 425.015 339.555 425.087C341.816 425.159 343.776 426.618 344.989 428.823C345.906 430.555 346.345 432.499 346.26 434.456Z" fill="#3F3D56"/>
<path opacity="0.2" d="M346.63 423.278C346.79 418.218 343.782 414.018 339.91 413.895C336.039 413.773 332.771 417.776 332.61 422.836C332.45 427.896 335.459 432.097 339.33 432.219C343.202 432.341 346.47 428.338 346.63 423.278Z" fill="#3F3D56"/>
<path opacity="0.2" d="M346.987 412.077C347.148 407.017 344.139 402.816 340.268 402.694C336.396 402.572 333.128 406.575 332.968 411.635C332.808 416.695 335.816 420.895 339.688 421.018C343.559 421.14 346.827 417.137 346.987 412.077Z" fill="#3F3D56"/>
<path opacity="0.2" d="M347.338 400.875C347.499 395.816 344.49 391.615 340.619 391.493C336.747 391.37 333.479 395.373 333.319 400.433C333.159 405.493 336.167 409.694 340.039 409.816C343.91 409.938 347.178 405.935 347.338 400.875Z" fill="#3F3D56"/>
<path opacity="0.2" d="M347.689 389.674C347.85 384.614 344.841 380.413 340.97 380.291C337.098 380.169 333.83 384.172 333.67 389.232C333.51 394.292 336.518 398.493 340.39 398.615C344.261 398.737 347.529 394.734 347.689 389.674Z" fill="#3F3D56"/>
<path opacity="0.2" d="M316.831 311.95C315.908 310.703 315.075 309.391 314.34 308.024L332.863 305.584L312.924 305.106C311.145 300.894 310.245 296.363 310.28 291.791C310.315 287.219 311.284 282.702 313.127 278.517L339.424 293.205L315.336 274.336C317.766 270.413 320.981 267.032 324.778 264.405C328.576 261.777 332.876 259.96 337.409 259.065C341.942 258.171 346.611 258.22 351.124 259.208C355.638 260.196 359.899 262.102 363.641 264.808C367.383 267.513 370.526 270.96 372.874 274.933C375.222 278.905 376.724 283.318 377.286 287.896C377.849 292.475 377.459 297.119 376.143 301.54C374.826 305.962 372.61 310.064 369.634 313.592C371.069 315.533 372.289 317.624 373.271 319.828L348.961 331.474L374.74 323.734C376.363 329.081 376.625 334.747 375.501 340.221C374.377 345.694 371.903 350.801 368.303 355.08C372.046 360.149 374.284 366.166 374.762 372.445C375.239 378.724 373.937 385.01 371.004 390.585C368.071 396.16 363.626 400.799 358.176 403.97C352.726 407.142 346.493 408.718 340.187 408.52C333.882 408.322 327.76 406.356 322.522 402.848C317.283 399.34 313.139 394.431 310.564 388.683C307.989 382.935 307.086 376.579 307.959 370.343C308.832 364.107 311.445 358.241 315.5 353.418C311.029 347.36 308.727 339.978 308.965 332.457C309.203 324.937 311.966 317.714 316.811 311.95H316.831Z" fill="#4E944F"/>
<path opacity="0.1" d="M376.168 334.575C375.939 342.1 373.167 349.326 368.303 355.08C372.046 360.149 374.284 366.167 374.762 372.445C375.239 378.724 373.937 385.01 371.004 390.585C368.071 396.16 363.626 400.799 358.176 403.97C352.726 407.142 346.493 408.719 340.187 408.52C333.882 408.322 327.76 406.356 322.522 402.848C317.283 399.34 313.139 394.431 310.564 388.683C307.989 382.935 307.086 376.579 307.959 370.343C308.832 364.107 311.445 358.241 315.5 353.418C311.194 347.575 376.286 330.813 376.168 334.575Z" fill="black"/>
</g>
<g opacity="0.2">
<path opacity="0.2" d="M618.402 441.614C618.352 442.95 618.192 444.281 617.924 445.592C609.141 444.191 600.294 442.94 591.385 441.836C591.385 441.483 591.385 441.123 591.385 440.756C591.468 436.978 592.558 433.29 594.544 430.072C597.166 425.97 601.099 423.399 605.444 423.53C609.79 423.66 613.572 426.48 615.931 430.727C617.711 434.071 618.564 437.83 618.402 441.614Z" fill="#3F3D56"/>
<path opacity="0.2" d="M619.116 420.073C619.424 410.329 613.629 402.239 606.172 402.003C598.715 401.768 592.42 409.477 592.112 419.221C591.803 428.965 597.598 437.055 605.055 437.29C612.512 437.526 618.807 429.817 619.116 420.073Z" fill="#3F3D56"/>
<path opacity="0.2" d="M619.797 398.508C620.106 388.763 614.311 380.673 606.854 380.438C599.397 380.203 593.101 387.912 592.793 397.656C592.484 407.4 598.279 415.49 605.736 415.725C613.193 415.96 619.489 408.252 619.797 398.508Z" fill="#3F3D56"/>
<path opacity="0.2" d="M620.485 376.943C620.793 367.199 614.998 359.109 607.541 358.873C600.084 358.638 593.789 366.347 593.48 376.091C593.172 385.835 598.967 393.925 606.424 394.16C613.881 394.396 620.176 386.687 620.485 376.943Z" fill="#3F3D56"/>
<path opacity="0.2" d="M620.397 354.396C620.69 344.647 614.88 336.563 607.419 336.34C599.958 336.116 593.673 343.838 593.38 353.587C593.087 363.336 598.897 371.421 606.358 371.644C613.819 371.867 620.104 364.145 620.397 354.396Z" fill="#3F3D56"/>
<path opacity="0.2" d="M561.739 205.775C559.97 203.373 558.369 200.853 556.948 198.231L592.604 193.534L554.228 192.611C550.8 184.501 549.065 175.779 549.131 166.977C549.196 158.175 551.06 149.479 554.608 141.421L605.241 169.692L558.875 133.367C563.563 125.832 569.755 119.342 577.066 114.301C584.377 109.26 592.65 105.776 601.369 104.067C610.088 102.357 619.066 102.459 627.744 104.364C636.422 106.27 644.614 109.94 651.809 115.144C659.004 120.349 665.048 126.977 669.565 134.615C674.081 142.254 676.973 150.739 678.061 159.542C679.148 168.345 678.407 177.277 675.885 185.781C673.362 194.286 669.112 202.181 663.399 208.974C666.16 212.713 668.509 216.738 670.406 220.98L623.6 243.415L673.224 228.498C676.352 238.779 676.861 249.677 674.706 260.204C672.551 270.732 667.799 280.556 660.882 288.789C668.086 298.547 672.393 310.132 673.312 322.219C674.23 334.306 671.723 346.407 666.076 357.139C660.43 367.87 651.872 376.799 641.381 382.904C630.89 389.009 618.89 392.045 606.752 391.663C594.615 391.281 582.83 387.497 572.745 380.744C562.661 373.991 554.683 364.542 549.725 353.477C544.767 342.412 543.028 330.177 544.707 318.172C546.387 306.167 551.417 294.876 559.222 285.59C550.619 273.928 546.19 259.72 546.646 245.244C547.103 230.769 552.418 216.867 561.739 205.768V205.775Z" fill="#4E944F"/>
<path opacity="0.1" d="M675.984 249.323C675.554 263.802 670.242 277.711 660.908 288.802C668.112 298.56 672.42 310.145 673.338 322.232C674.257 334.319 671.749 346.42 666.103 357.152C660.456 367.883 651.898 376.812 641.407 382.917C630.916 389.022 618.916 392.058 606.779 391.676C594.641 391.294 582.856 387.51 572.772 380.757C562.687 374.005 554.709 364.555 549.751 353.49C544.793 342.425 543.054 330.19 544.734 318.185C546.413 306.18 551.443 294.889 559.248 285.603C550.898 274.343 676.213 242.08 675.984 249.323Z" fill="black"/>
</g>
<path d="M103.443 442.765L110.319 442.745H120.013L132.269 243.991L253.652 41.8014L248.376 36.1485V21.833L117.102 239.306L103.443 442.765Z" fill="#F1C0C0"/>
<path opacity="0.1" d="M111.053 442.745H120.013L132.27 243.991L253.652 41.8013L248.376 36.1484L123.172 240.962L111.053 442.745Z" fill="black"/>
<path d="M83.1831 444.42L397.7 468.445L397.969 468.465L702.352 449.779L702.582 449.766V436.936L367.189 430.792L87.3714 430.524H85.3264L85.1036 431.963L83.1831 444.42Z" fill="#F1C0C0"/>
<path opacity="0.1" d="M83.1831 444.42L397.7 468.445L397.969 468.465L702.352 449.779L702.582 449.53V437.204H702.313L397.7 447.358L87.3714 430.524H87.3255L86.775 430.884L85.1036 431.963L83.1831 444.42Z" fill="black"/>
<path opacity="0.1" d="M83.1831 444.42L397.7 468.445V447.358L86.775 430.884L85.1036 431.963L83.1831 444.42Z" fill="black"/>
<path d="M248.336 35.8802L386.996 184.439L382.71 445.755L394.488 447.175L394.685 447.201H406.463L407.873 195.66L667.515 282.233L671.894 436.379L681.371 437.439L684.583 437.799L677.15 271.542L405.729 176.424L256.903 21.9835H248.336V35.8802Z" fill="#F1C0C0"/>
<path opacity="0.1" d="M406.804 190.851L407.872 195.66L667.515 282.233L671.893 436.379L681.371 437.439L673.938 279.027L406.804 190.851Z" fill="black"/>
<path opacity="0.1" d="M248.336 35.8802L386.996 184.439L382.71 445.755L394.488 447.175L397.7 175.888L248.336 21.9835V35.8802Z" fill="black"/>
<path d="M407.309 295.724L502.539 314.443L502.571 314.449L669.363 347.248L676.999 344.193L676.973 343.656L676.475 333.024L407.407 278.752L407.309 295.724Z" fill="#F1C0C0"/>
<path opacity="0.1" d="M502.571 314.449L669.363 347.248L676.999 344.193L676.973 343.656L502.571 314.449Z" fill="black"/>
<path d="M508.949 229.361L511.525 370.906L512.856 443.524L524.582 443.131L531.962 442.883L529.668 231.409L524.582 229.721L523.467 229.361H508.949Z" fill="#F1C0C0"/>
<path opacity="0.1" d="M509.054 229.329V229.361L511.525 370.907L512.855 443.524L524.581 443.132V229.329H509.054Z" fill="black"/>
<path d="M325.273 265.51C325.961 265.883 326.618 266.31 327.239 266.786C327.973 267.427 328.633 268.149 329.206 268.938C332.017 272.569 334.613 276.789 334.338 281.369C334.344 282.036 334.218 282.697 333.967 283.314C333.716 283.932 333.345 284.494 332.876 284.968C331.716 285.956 330.051 286.002 328.53 286.002C326.879 286.002 325.142 286.002 323.713 285.151C322.284 284.301 321.091 282.645 319.4 282.684C319.161 282.724 318.918 282.724 318.679 282.684C318.096 282.495 317.978 281.729 317.598 281.245C316.942 280.375 315.559 280.591 314.53 280.97C313.501 281.35 312.361 281.919 311.345 281.481C310.755 281.17 310.273 280.689 309.962 280.1C307.53 276.174 307.012 271.457 306.553 266.897C306.271 264.123 304.122 254.662 310.053 256.815C312.675 257.757 315.127 259.641 317.512 261.022L325.273 265.51Z" fill="#3F3D56"/>
<path d="M319.413 266.445C319.943 266.826 320.585 267.018 321.237 266.992C321.889 266.966 322.514 266.723 323.011 266.302C323.987 265.421 324.609 264.217 324.761 262.912C325.417 262.71 325.751 263.567 326.171 264.09C326.905 264.98 328.399 264.967 329.068 265.916C329.533 266.57 329.428 267.479 329.756 268.219C330.182 269.174 331.237 269.671 331.958 270.443C332.639 271.287 333.131 272.266 333.4 273.315L334.475 276.534C334.989 277.873 335.32 279.275 335.458 280.702C335.526 281.415 335.451 282.135 335.237 282.819C335.023 283.503 334.675 284.138 334.213 284.687C332.771 286.237 330.405 286.401 328.314 286.355C327.616 286.37 326.919 286.288 326.243 286.113C324.388 285.537 323.201 283.672 322.71 281.795C322.218 279.917 322.271 277.948 321.982 276.024C321.671 274.135 321.12 272.292 320.344 270.541C319.767 269.18 318.181 267.152 318.207 265.706C318.679 265.706 319.02 266.138 319.413 266.445Z" fill="#3F3D56"/>
<path d="M321.766 259.818C321.46 258.889 321.281 257.922 321.235 256.945C321.235 254.983 322.133 253.138 323.038 251.384L315.546 252.398C314.641 252.523 313.632 252.706 313.121 253.458C312.927 253.831 312.825 254.245 312.825 254.665C312.825 255.086 312.927 255.5 313.121 255.872C313.496 256.619 313.795 257.402 314.012 258.208C314.029 258.914 314.11 259.617 314.255 260.308C314.488 260.816 314.815 261.276 315.218 261.663C317.362 264.031 318.967 266.825 320.567 269.593C320.521 269.514 325.083 265.987 324.899 264.836C324.794 264.182 323.477 263.397 323.057 262.768C322.478 261.857 322.042 260.862 321.766 259.818Z" fill="#BE6F72"/>
<path d="M386 234.255V240.7L275.446 262.225L269.71 265.693H249.922V262.062L358.543 235.865L386 234.255Z" fill="#F1C0C0"/>
<path opacity="0.1" d="M386 240.7L275.446 262.225L269.71 265.693H249.922L359.349 242.316L386 240.7Z" fill="black"/>
<path d="M297.239 417.203C296.007 415.714 294.307 414.685 292.415 414.283C290.522 413.881 288.549 414.131 286.817 414.991C286.447 415.165 286.12 415.42 285.86 415.737C285.205 416.653 285.624 417.916 285.683 419.048C285.834 421.809 283.632 424.053 281.652 425.983C280.591 427.017 279.509 428.122 279.031 429.529C278.552 430.936 278.906 432.722 280.191 433.455C280.751 433.735 281.361 433.904 281.987 433.952C284.082 434.36 286.23 434.42 288.345 434.129C290.435 433.73 292.487 432.545 293.392 430.622C293.566 430.1 293.855 429.624 294.237 429.228C295.391 428.319 297.16 429.385 298.471 428.737C299.553 428.201 299.599 427.357 299.612 426.245C299.651 423.17 299.192 419.689 297.239 417.203Z" fill="#4E944F"/>
<path d="M312.97 417.085C313.776 419.205 313.888 421.514 313.992 423.778C314.051 425.087 314.091 426.487 313.383 427.592C312.675 428.698 311.292 429.281 309.968 429.555C307.235 430.118 304.069 429.588 302.306 427.422C300.956 425.767 300.674 423.497 300.923 421.351C301.132 419.591 301.578 417.53 300.313 416.28C299.985 415.946 299.559 415.711 299.258 415.351C298.602 414.553 298.707 413.349 299.061 412.368C299.522 411.429 299.868 410.438 300.09 409.417C300.143 408.933 308.965 409.757 309.778 410.156C310.886 410.699 310.715 411.609 311.049 412.708C311.515 414.239 312.406 415.619 312.97 417.085Z" fill="#4E944F"/>
<path d="M314.589 323.092C316.319 324.211 316.988 326.409 317.257 328.451C317.997 334.045 316.7 339.698 316.601 345.344C316.509 353.254 318.804 361.308 316.844 368.97C315.671 373.55 316.667 378.784 315.566 383.41C315.238 384.784 314.635 386.079 314.32 387.453C313.665 390.43 314.353 393.544 315.277 396.456C315.572 397.24 315.76 398.061 315.834 398.896C315.79 400.181 315.463 401.441 314.877 402.586L310.945 411.87C310.506 412.911 308.775 413.081 307.667 413.218C305.583 413.467 303.256 413.643 301.598 412.354C299.94 411.066 299.54 408.906 299.284 406.891C298.794 403.023 298.575 399.125 298.629 395.226C298.701 394.208 298.61 393.186 298.36 392.196C298 391.078 297.207 390.109 296.99 388.925C296.715 387.394 297.495 385.889 297.783 384.345C297.981 382.935 297.959 381.502 297.718 380.099C297.462 378.005 297.167 375.912 296.833 373.831C296.361 370.919 297.036 368.047 297.488 365.129C297.914 362.388 297.37 359.594 296.833 356.872C296.879 359.081 296.603 361.285 296.014 363.415C295.666 364.455 295.168 365.45 294.867 366.51C293.523 371.266 296.387 376.258 295.981 381.185C295.791 383.488 294.886 385.765 295.142 388.035C295.319 389.697 296.092 391.222 296.623 392.805C297.154 394.388 297.429 396.201 296.623 397.679C294.493 401.696 296.086 407.16 297.993 411.281C298.38 412.013 298.717 412.769 299.002 413.545C299.566 415.403 299.094 417.399 299.245 419.336C298.696 419.425 298.134 419.389 297.601 419.229C297.068 419.069 296.579 418.79 296.171 418.413C295.883 418.112 295.647 417.759 295.365 417.445C294.577 416.696 293.645 416.114 292.625 415.737C292.026 415.402 291.344 415.246 290.659 415.286C289.938 415.486 289.29 415.888 288.791 416.444C288.142 417.013 287.455 417.535 286.732 418.007C286.425 418.243 286.065 418.403 285.684 418.472C285.492 418.502 285.296 418.47 285.123 418.382C284.95 418.294 284.809 418.154 284.72 417.981C284.679 417.872 284.655 417.757 284.648 417.641C284.405 415.665 284.276 413.678 284.261 411.687C284.261 408.265 280.158 405.91 279.641 402.527C279.228 399.799 279.994 397.018 279.739 394.27C279.614 392.857 279.221 391.47 279.247 390.057C279.247 389.141 279.457 388.245 279.529 387.335C279.589 386.326 279.574 385.313 279.483 384.306L279.28 381.146C279.083 378.025 278.867 374.839 277.635 371.986C276.174 368.655 275.308 365.094 275.079 361.465C274.948 359.175 275.033 356.885 274.771 354.589C274.535 352.515 274.01 350.454 274.161 348.373C274.286 346.764 274.816 345.207 274.941 343.597C275.197 340.502 274.017 337.493 273.093 334.529C272.168 331.565 271.487 328.281 272.699 325.421C272.873 324.952 273.161 324.534 273.538 324.205C274.003 323.897 274.532 323.7 275.085 323.629C286.331 321.271 297.858 320.537 309.313 321.45C311.18 321.556 312.992 322.12 314.589 323.092Z" fill="#3F3D56"/>
<path d="M277.379 253.602C283.178 253.602 287.879 248.909 287.879 243.121C287.879 237.332 283.178 232.639 277.379 232.639C271.58 232.639 266.879 237.332 266.879 243.121C266.879 248.909 271.58 253.602 277.379 253.602Z" fill="#BE6F72"/>
<path d="M275.347 256.213C275.498 256.812 275.498 257.439 275.347 258.038C275.182 258.457 274.949 258.846 274.659 259.19C273.642 260.498 272.518 261.72 271.296 262.84C271.919 264.228 273.039 265.332 274.436 265.935C275.823 266.525 277.279 266.94 278.768 267.172C279.512 267.367 280.286 267.42 281.049 267.329C281.753 267.152 282.419 266.851 283.016 266.439L288.849 262.952C289.729 262.476 290.545 261.889 291.274 261.205C292.344 260.107 292.95 258.641 292.966 257.109C292.993 256.835 292.918 256.56 292.756 256.337C292.532 256.143 292.252 256.026 291.956 256.003C289.905 255.552 288.286 253.89 287.368 252.006C286.538 250.074 286.002 248.03 285.775 245.941L279.555 249.212C278.631 249.703 277.713 250.193 276.756 250.619C276.147 250.894 274.914 251.122 274.482 251.679C273.656 252.706 275.131 254.976 275.347 256.213Z" fill="#BE6F72"/>
<path d="M271.336 260.937C270.45 261.661 269.759 262.594 269.324 263.652C268.917 264.96 269.324 266.341 269.691 267.636C271.411 273.158 272.725 278.797 273.623 284.51C274.174 288.436 274.377 292.42 274.646 296.392C275.196 304.491 275.996 317.407 277.064 325.454C280.997 325.631 284.832 324.486 288.731 324.067C296.02 323.295 303.525 325.062 310.663 323.413C308.932 316.589 307.202 304.936 305.472 298.119C304.706 295.433 304.175 292.685 303.885 289.908C303.735 287.912 303.826 285.91 303.853 283.901C303.912 279.976 303.695 276.05 303.479 272.125C303.23 267.545 302.981 262.965 301.893 258.483C301.817 257.912 301.549 257.384 301.133 256.985C300.477 256.507 299.625 256.677 298.845 256.782C296.457 257.085 294.04 256.513 292.041 255.172C291.176 254.584 290.016 253.864 289.21 254.518C288.866 254.913 288.639 255.395 288.554 255.912C288.198 256.837 287.647 257.676 286.94 258.372C286.232 259.069 285.384 259.606 284.451 259.949C282.584 260.624 280.627 261.025 278.644 261.139C278.037 261.269 277.404 261.198 276.842 260.937C275.911 260.367 275.845 258.319 274.672 258.182C273.643 258.064 272.031 260.276 271.336 260.937Z" fill="#3F3D56"/>
<path d="M286.844 276.914C284.425 274.604 283.363 271.254 281.6 268.408C280.4 266.495 278.866 264.811 277.071 263.436C276.169 262.841 275.342 262.14 274.607 261.349C273.984 260.583 273.512 259.563 272.568 259.268C272.178 259.183 271.773 259.195 271.389 259.301C271.004 259.407 270.651 259.604 270.359 259.877C269.782 260.426 269.235 261.007 268.721 261.617C265.942 264.489 261.059 264.888 258.856 268.212C258.262 268.917 257.858 269.761 257.683 270.666C257.049 275.503 258.302 280.399 261.183 284.34C261.741 285.253 262.598 285.947 263.608 286.303C263.471 287.523 263.633 288.758 264.08 289.901C265.294 294.042 266.785 298.097 268.544 302.038C268.123 303.58 267.83 305.153 267.665 306.742C267.207 310.74 267.633 314.796 267.2 318.8C266.846 322.072 265.889 325.258 265.856 328.536C265.856 329.059 265.902 329.681 266.355 329.949C266.595 330.072 266.865 330.129 267.135 330.113L275.197 330.355C279.876 330.492 284.602 330.63 289.21 329.766C289.824 329.675 290.419 329.488 290.973 329.21C292.533 328.34 293.051 326.377 293.3 324.63C293.625 322.364 293.755 320.074 293.687 317.786C294.663 320.868 295.824 324.054 298.773 325.389C300.333 326.095 302.116 326.043 303.827 325.997C307.514 325.833 311.188 325.455 314.832 324.865C315.056 324.893 315.284 324.868 315.497 324.792C315.71 324.716 315.902 324.592 316.059 324.428C316.215 324.265 316.33 324.067 316.396 323.851C316.462 323.635 316.476 323.406 316.437 323.184L316.477 319.612C316.555 312.356 314.753 305.42 314.052 298.197C313.829 295.92 313.848 293.617 313.291 291.386C313.062 290.451 312.728 289.535 312.524 288.593C312.349 287.67 312.24 286.737 312.197 285.799L311.685 278.602C311.443 275.272 311.095 272.059 310.84 268.735C310.699 265.499 310.229 262.285 309.437 259.144C308.867 257.181 307.681 254.957 305.629 254.714C304.534 254.59 303.473 255.068 302.43 255.401C299.869 256.206 297.12 256.195 294.565 255.369C293.776 255.058 292.953 254.838 292.114 254.714C291.691 254.657 291.261 254.713 290.867 254.876C290.473 255.039 290.13 255.304 289.872 255.643C289.618 256.155 289.498 256.722 289.525 257.292C289.217 263.828 288.646 270.561 286.844 276.914Z" fill="#4E944F"/>
<path d="M276.297 277.11C273.276 273.93 270.176 270.692 266.282 268.67C264.748 267.872 263.005 267.27 261.307 267.571C259.61 267.872 258.03 269.344 258.109 271.065C258.161 272.131 258.81 273.073 259.013 274.12C259.249 275.298 258.908 276.554 259.275 277.692C259.574 278.443 260.019 279.126 260.586 279.701L265.227 285.19C267.193 287.48 269.16 289.803 271.69 291.386C274.22 292.97 277.497 293.709 280.276 292.584C282.253 291.666 283.897 290.16 284.982 288.272C286.136 286.44 286.948 284.438 288.03 282.547C289.713 279.526 291.934 276.836 294.584 274.611C293.221 274.257 291.51 273.76 290.652 272.648C290.407 272.294 290.199 271.917 290.029 271.523L288.967 269.233C288.606 269.214 288.245 269.27 287.907 269.397C287.568 269.524 287.26 269.72 287.001 269.972C286.546 270.497 286.057 270.993 285.539 271.457C284.615 272.151 283.363 272.34 282.524 273.132C282.2 273.472 281.906 273.84 281.646 274.231C281.011 275.064 280.206 275.751 279.283 276.248C278.361 276.744 277.343 277.038 276.297 277.11Z" fill="#3F3D56"/>
<path d="M294.827 263.429C297.102 259.288 296.997 254.322 297.646 249.644C297.716 248.405 298.152 247.214 298.898 246.222C300.209 244.743 302.522 244.724 304.502 244.913C305.085 244.979 305.813 245.254 305.78 245.836C305.734 246.045 305.632 246.237 305.485 246.392C303.566 248.864 302.438 251.855 302.247 254.976C303.276 255.689 304.869 254.224 305.859 254.976C306.514 255.526 306.213 256.612 305.819 257.397C304.906 259.216 303.964 261.022 302.994 262.814C302.22 264.394 301.21 265.848 299.999 267.126C299.166 267.924 298.19 268.552 297.344 269.337C295.378 271.176 294.192 273.773 292.16 275.566C291.988 275.752 291.756 275.87 291.504 275.9C291.246 275.881 291.002 275.772 290.816 275.592C289.801 274.768 288.959 273.752 288.338 272.602C287.565 271.176 287.683 270.757 288.902 269.75C291.183 267.95 293.405 266.02 294.827 263.429Z" fill="#BE6F72"/>
<path d="M272.496 274.297C272.889 274.539 273.374 274.814 273.807 274.611C273.984 274.504 274.134 274.359 274.246 274.186C274.996 273.187 275.621 272.102 276.108 270.953C276.192 270.791 276.239 270.612 276.245 270.43C276.245 270.011 275.872 269.704 275.524 269.462C273.663 268.277 271.662 267.328 269.566 266.635C267.836 265.981 266.027 265.412 264.192 265.575C263.502 265.622 262.829 265.807 262.213 266.119C261.597 266.432 261.05 266.865 260.606 267.394C259.295 269.076 261.491 269.586 262.868 270.195C266.053 271.64 269.501 272.478 272.496 274.297Z" fill="#4E944F"/>
<path opacity="0.1" d="M270.431 285.419C270.409 285.569 270.423 285.721 270.47 285.864C270.518 286.008 270.599 286.138 270.707 286.244C270.897 285.315 270.648 284.333 270.844 283.398C271.133 281.991 272.502 280.931 272.62 279.518C270.11 279.027 270.451 283.901 270.431 285.419Z" fill="black"/>
<path opacity="0.2" d="M386 234.255V240.7L359.35 242.316L358.543 235.865L386 234.255Z" fill="black"/>
<path d="M267.928 244.678C269.593 243.324 268.629 240.484 269.756 238.665C270.412 237.671 271.52 237.147 272.608 236.702C273.921 236.089 275.328 235.7 276.77 235.551C277.492 235.482 278.22 235.576 278.901 235.826C279.582 236.076 280.198 236.476 280.702 236.997C281.128 237.481 281.417 238.07 281.817 238.574C282.312 239.161 282.957 239.604 283.684 239.855C284.411 240.107 285.193 240.156 285.946 240C286.818 239.804 287.722 239.143 287.663 238.253C287.565 237.712 287.288 237.219 286.877 236.853L285.002 234.779C282.872 232.423 280.506 229.924 277.379 229.335C275.203 228.923 272.975 229.505 270.877 230.205C270.032 230.487 269.081 230.905 268.845 231.763C268.688 232.351 268.924 232.993 268.786 233.588C268.518 234.772 266.997 235.171 266.289 236.166C265.581 237.16 265.797 238.338 265.594 239.437C265.391 240.536 264.801 241.609 264.729 242.748C264.683 243.435 265.031 244.711 265.804 244.959C266.577 245.208 267.449 243.86 267.928 244.678Z" fill="#3F3D56"/>
<path d="M287.028 237.311C286.475 234.432 285.283 231.714 283.541 229.355C281.991 227.151 279.835 225.442 277.333 224.435C276.083 223.947 274.738 223.748 273.4 223.854C272.061 223.959 270.764 224.366 269.606 225.043C267.886 226.268 266.548 227.954 265.745 229.904C264.048 233.555 263.418 238.017 265.391 241.524C266.178 240.569 267.528 241.001 268.721 240.654C270.215 240.229 271.48 239.234 272.903 238.613C277.196 236.722 282.439 238.253 287.028 237.311Z" fill="#FED253"/>
<path opacity="0.1" d="M266.394 237.108C266.243 235.93 266.145 234.563 266.984 233.725C267.026 233.674 267.079 233.633 267.139 233.606C267.199 233.579 267.265 233.566 267.331 233.568C267.39 233.587 267.444 233.618 267.49 233.658C267.536 233.699 267.574 233.748 267.6 233.804C268.084 234.567 268.497 235.373 268.832 236.212C268.344 236.099 267.833 236.136 267.365 236.317C266.898 236.497 266.496 236.814 266.21 237.226" fill="black"/>
<path opacity="0.1" d="M281.712 233.784L281.476 231.448C281.438 231.256 281.454 231.057 281.522 230.873C281.621 230.719 281.773 230.607 281.95 230.558C282.127 230.51 282.315 230.529 282.479 230.611C282.801 230.789 283.067 231.055 283.246 231.376C283.791 232.213 284.244 233.105 284.596 234.039C283.54 233.836 282.454 233.85 281.404 234.079" fill="black"/>
<path opacity="0.1" d="M287.578 328.582V333.921L283.062 334.221H259.309V328.582H287.578Z" fill="black"/>
<path d="M287.578 328.582V334.221H259.308L184.207 240.314V235.878H199.951L287.578 328.582Z" fill="#F1C0C0"/>
<path opacity="0.1" d="M287.578 328.582V334.221H259.308L184.207 240.314V235.878H199.951L287.578 328.582Z" fill="black"/>
<path opacity="0.1" d="M287.578 328.582V334.221H259.308L184.207 240.314V235.878L259.715 328.582H287.578Z" fill="black"/>
<path d="M194.052 422.705C194.101 422.971 194.095 423.243 194.034 423.506C193.973 423.769 193.859 424.017 193.698 424.234C193.536 424.45 193.332 424.632 193.098 424.766C192.863 424.9 192.603 424.985 192.335 425.015C190.512 425.63 188.579 426.238 187.288 427.632C185.996 429.025 185.741 431.61 187.288 432.742C188.078 433.218 188.986 433.465 189.909 433.455C192.879 433.658 195.972 433.618 198.666 432.362C200.593 431.472 202.409 429.954 204.526 430.092C205.621 430.157 206.787 430.668 207.764 430.17C208.74 429.673 209.016 428.286 209.022 427.128C209.047 424.71 208.682 422.305 207.941 420.003C207.842 419.689 203.674 419.447 203.176 419.349L198.122 418.694C197.165 418.57 195.101 417.85 194.347 418.649C193.593 419.447 194.052 421.756 194.052 422.705Z" fill="#4E944F"/>
<path d="M224.209 406.374C224.423 407.553 224.771 408.703 225.245 409.803C225.946 411.582 226.844 413.473 228.562 414.337C230.122 415.116 232.035 414.834 233.622 414.095C234.284 413.821 234.864 413.382 235.306 412.819C235.818 411.929 236.046 410.904 235.962 409.881C235.962 407.349 235.811 404.732 234.651 402.482C233.654 400.519 231.918 398.831 231.891 396.659L225.92 397.81C225.6 397.841 225.296 397.961 225.042 398.157C224.853 398.356 224.721 398.602 224.662 398.87C224.024 401.318 223.871 403.867 224.209 406.374Z" fill="#4E944F"/>
<path d="M152.903 344.219C152.654 346.325 152.759 348.583 153.86 350.402C154.961 352.22 157.281 353.424 159.287 352.698C159.39 352.672 159.486 352.625 159.571 352.561C159.655 352.497 159.726 352.417 159.779 352.325C159.832 352.104 159.802 351.871 159.693 351.671C158.808 349.312 158.881 346.701 159.897 344.395C160.028 344.094 160.309 343.741 160.618 343.859C160.746 343.924 160.85 344.03 160.912 344.16C161.23 344.708 161.389 345.333 161.371 345.966C161.279 346.539 161.261 347.122 161.319 347.699C161.443 348.262 162.046 348.792 162.571 348.55C162.722 348.457 162.853 348.334 162.956 348.189C163.058 348.044 163.13 347.88 163.167 347.706C164.629 343.486 163.967 338.873 163.298 334.457C163.304 334.356 163.287 334.254 163.249 334.16C163.211 334.066 163.153 333.981 163.078 333.912C163.004 333.842 162.915 333.79 162.819 333.759C162.722 333.728 162.619 333.718 162.518 333.731C159.425 333.423 157.734 332.684 155.964 335.556C154.443 337.977 152.903 341.307 152.903 344.219Z" fill="#4E944F"/>
<path d="M189.071 333.482C188.153 337.29 187.229 341.144 187.17 345.056C187.186 347.493 187.37 349.926 187.72 352.338L188.409 358.004C188.645 359.915 188.874 361.819 189.208 363.709C189.422 364.684 189.538 365.676 189.556 366.673C189.491 367.656 189.336 368.631 189.09 369.585C188.678 371.588 188.448 373.625 188.402 375.669C188.33 378.941 188.736 382.212 188.992 385.484C189.502 392.003 189.426 398.554 188.763 405.059C188.498 406.815 188.88 408.607 189.838 410.104C190.226 410.576 190.546 411.1 190.788 411.661C191.28 413.159 190.133 414.658 189.838 416.195C189.649 417.394 189.945 418.619 190.66 419.6C191.375 420.581 192.451 421.239 193.652 421.429C198.896 422.051 204.284 421.769 209.009 424.164C209.508 422.712 208.42 421.063 208.918 419.584C209.232 418.668 210.098 418.073 210.687 417.301C211.48 416.124 211.875 414.726 211.815 413.31C211.838 411.461 211.509 409.625 210.845 407.899C210.288 406.46 209.488 405.04 209.534 403.496C209.534 402.737 209.803 401.939 209.494 401.238C209.283 400.836 208.996 400.479 208.649 400.185C206.69 398.043 205.486 395.32 205.221 392.432C204.965 389.566 205.058 386.679 205.496 383.835C205.817 381.126 206.25 378.267 207.974 376.154C207.174 369.746 207.644 363.243 209.357 357.016C209.527 356.44 209.796 355.773 210.386 355.636C210.62 355.612 210.857 355.644 211.076 355.731C211.295 355.817 211.49 355.955 211.644 356.133C212.673 357.095 213.165 358.488 213.611 359.823C214.102 361.269 214.6 362.813 214.227 364.292C214.07 364.946 213.755 365.522 213.571 366.15C213.173 367.412 213.242 368.775 213.768 369.99C214.024 370.434 214.185 370.927 214.24 371.436C214.179 371.874 214.046 372.298 213.847 372.693C213.604 373.467 213.526 374.283 213.62 375.089C213.714 375.895 213.976 376.673 214.391 377.371C215.226 378.76 216.257 380.023 217.452 381.12C216.881 383.631 217.028 386.252 217.878 388.683C217.939 388.793 217.978 388.913 217.993 389.038C218.007 389.162 217.997 389.288 217.963 389.409C217.845 389.658 217.543 389.749 217.307 389.926C216.652 390.463 217.058 391.477 217.498 392.177C218.701 394.098 220.03 395.939 221.476 397.686C222.787 399.249 222.669 402.266 224.622 402.828C225.443 403.005 226.292 403.005 227.113 402.828C229.04 402.534 231.19 401.978 232.134 400.277C232.52 399.577 232.678 398.726 233.281 398.203C233.884 397.679 234.664 397.588 234.998 396.959C235.332 396.331 234.959 395.507 235.07 394.781C235.182 394.055 235.817 393.472 236.02 392.707C236.506 390.94 234.441 389.488 234.159 387.682C233.753 385.065 237.056 383.102 236.918 380.485C236.63 374.799 236.447 369.088 236.152 363.402C235.781 358.309 235.729 353.198 235.994 348.098C236.224 344.925 236.65 341.602 235.483 338.651C233.805 334.49 229.178 332.154 224.701 331.709C220.224 331.264 215.761 332.324 211.323 333.018C203.959 334.15 196.476 334.307 189.071 333.482Z" fill="#3F3D56"/>
<path d="M202.376 270.947C208.175 270.947 212.877 266.254 212.877 260.465C212.877 254.677 208.175 249.984 202.376 249.984C196.577 249.984 191.876 254.677 191.876 260.465C191.876 266.254 196.577 270.947 202.376 270.947Z" fill="#FBBEBE"/>
<path d="M198.103 272.903C197.746 273.732 197.146 274.434 196.382 274.916C195.618 275.399 194.726 275.639 193.822 275.605C193.442 277.176 194.353 278.759 195.396 279.995C197.56 282.509 200.356 284.401 203.497 285.477C206.638 286.552 210.009 286.772 213.263 286.113C214.529 285.887 215.731 285.386 216.783 284.647C218.201 283.465 219.153 281.819 219.47 280.002C219.772 278.197 219.858 276.364 219.726 274.539C219.763 274.178 219.659 273.818 219.437 273.531C219.175 273.329 218.851 273.222 218.52 273.23C216.304 273.034 213.991 272.949 212.044 271.863C210.097 270.777 208.714 268.323 209.652 266.308C209.501 266.622 205.673 266.773 205.168 266.838C203.589 267.061 202.009 267.309 200.436 267.597C199.68 267.638 198.933 267.779 198.214 268.016C197.264 268.506 197.617 268.264 197.84 269.154C198.175 270.515 198.666 271.49 198.103 272.903Z" fill="#FBBEBE"/>
<path d="M206.093 279.276C204.679 279.292 203.268 279.136 201.891 278.811C200.502 278.487 199.277 277.671 198.444 276.515C197.959 275.782 197.644 274.859 196.871 274.447C195.606 273.793 194.164 274.899 193.154 275.913C192.235 276.913 191.17 277.769 189.995 278.451C188.592 279.191 186.954 279.452 185.63 280.323C184.595 281.103 183.708 282.06 183.008 283.149L173.72 295.777C169.991 300.854 166.746 306.304 163.423 311.662C160.546 316.301 159.038 321.64 156.869 326.645C156.697 326.951 156.626 327.304 156.665 327.653C156.744 327.993 157.157 328.268 157.445 328.071C156.469 329.04 157.327 330.688 157.098 332.049C156.837 333.002 156.293 333.852 155.538 334.49C156.981 334.302 158.445 334.371 159.864 334.693C161.33 335.107 162.714 335.771 163.954 336.655C164.747 336.531 164.675 335.124 165.265 334.601C165.619 334.293 166.143 334.333 166.609 334.241C168.359 333.901 169.053 331.801 170.397 330.616C171.518 329.629 173.104 329.308 174.29 328.379C176.217 326.867 176.63 324.178 177.64 321.947C178.498 320.057 179.849 318.408 180.602 316.471C181.094 315.215 181.33 313.854 182.031 312.696C183.152 310.825 185.263 309.83 187.275 308.934C188.546 308.365 189.897 307.776 191.267 307.867C191.194 310.91 190.808 313.906 191.47 316.877C191.699 317.924 192.02 318.944 192.296 319.985C193.548 324.669 193.842 329.55 193.901 334.379C196.913 333.691 199.989 333.322 203.078 333.279C205.509 333.207 207.935 333.521 210.366 333.476C213.25 333.423 216.102 332.867 218.985 332.671C221.869 332.475 224.884 332.671 227.434 333.979C227.227 329.833 227.343 325.677 227.782 321.548L228.476 315.045C228.633 313.155 228.924 311.279 229.348 309.431C229.728 307.939 230.279 306.5 230.698 305.015C232.173 299.781 231.904 294.193 231.623 288.743C231.478 285.943 230.397 283.188 229.125 280.696C228.665 279.77 228.139 278.878 227.552 278.026C226.016 275.913 223.968 274.222 221.6 273.113C219.232 272.003 216.621 271.51 214.011 271.68C213.677 271.69 213.348 271.761 213.041 271.889C212.487 272.243 212.055 272.756 211.802 273.361C210.446 275.794 208.478 277.833 206.093 279.276Z" fill="#3F3D56"/>
<path d="M193.141 263.94C193.436 263.285 194.229 263.043 194.714 262.52C195.645 261.525 195.225 259.935 195.369 258.594C195.605 256.631 197.237 254.989 199.105 254.289C201.01 253.679 203.038 253.551 205.005 253.916C205.951 253.985 206.866 254.289 207.666 254.799C208.006 255.048 208.321 255.369 208.642 255.598C209.228 255.951 209.928 256.062 210.594 255.906C211.261 255.751 211.84 255.342 212.208 254.767C209.888 251.98 207.318 249.035 203.792 248.178C202.582 247.932 201.349 247.815 200.115 247.831C198.483 247.799 196.798 247.773 195.291 248.394C193.239 249.238 191.797 251.181 191.057 253.275C190.409 255.397 190.062 257.6 190.028 259.818C189.893 261.298 189.893 262.787 190.028 264.267C190.281 266.288 191.033 268.215 192.217 269.874C192.377 270.132 192.603 270.342 192.872 270.482C195.861 271.791 192.898 264.483 193.141 263.94Z" fill="#3F3D56"/>
<path d="M211.867 253.151C211.507 250.069 209.304 247.524 206.964 245.476C205.078 243.7 202.832 242.35 200.377 241.518C197.906 240.792 195.061 240.949 192.944 242.421C191.24 243.605 190.159 245.489 189.326 247.387C188.233 249.626 187.691 252.093 187.747 254.584C187.91 257.057 189.116 259.563 191.266 260.812C192.04 259.674 193.383 259.085 194.675 258.62C200.302 256.489 206.042 254.663 211.867 253.151Z" fill="#FED253"/>
<path opacity="0.1" d="M191.987 251.868C192.197 251.868 192.335 252.084 192.44 252.261C192.973 253.091 193.432 253.967 193.809 254.878C193.043 255.041 191.725 255.225 191.345 254.551C191.142 254.211 191.384 251.836 191.987 251.868Z" fill="black"/>
<path opacity="0.1" d="M206.925 250.39C206.768 250.54 206.584 250.233 206.584 250.01V247.472C206.58 247.401 206.596 247.331 206.63 247.269C206.657 247.238 206.69 247.213 206.728 247.195C206.765 247.177 206.805 247.166 206.846 247.164C207.377 247.105 207.816 247.557 208.157 247.989C208.674 248.688 209.124 249.435 209.501 250.22L206.728 250.135" fill="black"/>
<path d="M241.526 292.427C242.129 291.855 242.773 291.328 243.453 290.85C245.269 289.639 247.464 289.162 249.503 288.39C251.541 287.618 253.613 286.368 254.406 284.34C254.803 283.071 254.932 281.735 254.786 280.414C254.805 279.861 254.707 279.31 254.497 278.798C254.248 278.345 253.893 277.959 253.462 277.673C250.696 275.631 246.986 275.468 243.551 275.677C235.979 276.146 228.557 277.995 221.653 281.134C221.288 281.254 220.968 281.482 220.735 281.788C220.601 282.072 220.54 282.384 220.558 282.698C220.436 284.627 220.688 286.562 221.299 288.396C222.204 290.725 224.065 292.603 224.845 294.978C225.199 296.045 225.317 297.177 225.625 298.25C225.878 299.358 226.534 300.333 227.467 300.984C230.056 302.529 232.501 300.455 234.297 298.845L241.526 292.427Z" fill="#3F3D56"/>
<path d="M207.62 301.488L204.296 294.252C203.809 293.249 203.389 292.215 203.038 291.157C202.658 289.895 202.474 288.586 202.12 287.317C200.954 283.09 198.011 279.57 196.575 275.429C196.485 275.055 196.3 274.71 196.038 274.428C195.828 274.28 195.589 274.18 195.336 274.134C195.084 274.089 194.824 274.1 194.576 274.166C192.571 274.513 191.004 276.037 189.169 276.901C188.317 277.293 187.399 277.555 186.547 278.006C186.121 278.208 185.744 278.498 185.44 278.859C185.137 279.219 184.916 279.64 184.79 280.094C184.587 281.095 185.085 282.056 185.505 283.031C187.288 287.048 187.694 291.537 187.773 295.933C187.832 298.891 187.681 302.064 185.931 304.439C182.568 309.019 184.718 315.745 185.977 321.287C186.127 321.941 186.304 322.647 186.409 323.341C186.52 324.209 186.571 325.083 186.56 325.958C186.56 328.896 186.396 331.925 185.164 334.588C186.381 335.234 187.721 335.613 189.097 335.7C192.903 336.184 196.724 336.524 200.56 336.721C201.762 336.834 202.975 336.772 204.159 336.538C205.565 336.158 206.805 335.322 207.682 334.161C208.559 333 209.024 331.58 209.003 330.126C209.212 331.938 209.599 333.907 210.917 335.164C212.234 336.42 214.154 336.61 215.944 336.708C220.994 336.975 226.058 336.833 231.085 336.282C231.406 336.268 231.721 336.195 232.015 336.066C232.985 335.582 233.038 334.248 232.959 333.175C232.815 331.166 232.664 329.157 232.422 327.162C232.216 325.89 232.111 324.603 232.107 323.315C232.207 321.989 232.426 320.675 232.763 319.389C233.641 315.306 234.336 311.139 234.041 306.958C233.924 305.94 233.883 304.914 233.916 303.889C234.087 301.58 235.306 299.382 235.076 297.085C234.421 290.333 233.89 283.404 232.002 276.888C231.661 275.723 231.229 274.473 230.213 273.806C228.902 272.929 227.06 273.387 225.559 272.831C224.855 272.504 224.185 272.107 223.56 271.647C222.202 270.799 220.645 270.321 219.044 270.26C217.838 270.214 216.494 270.482 215.767 271.451C215.43 271.996 215.207 272.603 215.111 273.237C214.161 277.228 213.047 281.173 211.932 285.118L210.864 288.9L208 299.054C207.718 300.134 207.908 300.468 207.62 301.488Z" fill="#4E944F"/>
<path d="M224.38 261.872L287.781 328.379V334.019H259.512L211.867 271.948" fill="#F1C0C0"/>
<path opacity="0.1" d="M224.38 261.872L287.781 328.379V334.019H259.512L211.867 271.948" fill="black"/>
<path opacity="0.1" d="M212.877 271.071L213.08 271.143L259.918 328.379H287.781V334.019H259.512L211.867 271.948L212.877 271.071Z" fill="black"/>
<path d="M220.171 272.471C217.877 273.472 215.328 274.755 214.639 277.162C214.504 277.585 214.474 278.034 214.554 278.471C214.722 278.984 215.042 279.435 215.471 279.763C215.901 280.091 216.42 280.282 216.96 280.309C218.039 280.336 219.112 280.14 220.112 279.734L233.647 275.272C234.015 275.154 234.434 274.977 234.526 274.617C234.549 274.391 234.504 274.163 234.395 273.963C233.975 272.942 233.562 270.855 232.684 270.142C231.963 269.566 230.534 269.769 229.662 269.782C226.306 269.808 223.154 271.163 220.171 272.471Z" fill="#4E944F"/>
<path d="M232.238 275.802C234.518 275.795 236.785 276.146 238.957 276.842C241.137 277.549 243.069 278.866 244.521 280.637C244.944 281.132 245.245 281.719 245.4 282.351C245.531 283.005 247.667 283.398 247.196 283.843C248.631 283.614 248.29 284.287 249.745 284.274C251.2 284.261 252.773 283.888 253.645 282.73C254.251 281.779 254.521 280.653 254.412 279.531C254.431 278.754 254.284 277.982 253.979 277.267C253.324 275.893 251.816 275.154 250.427 274.519L238.721 269.174C238.041 268.813 237.313 268.555 236.558 268.408C235.922 268.348 235.282 268.364 234.65 268.454L229.348 269.063C230.507 269.812 231.451 270.849 232.087 272.074C232.723 273.298 233.028 274.666 232.972 276.044" fill="#3F3D56"/>
</g>
<defs>
<clipPath id="clip0_6_779">
<rect width="772" height="474" fill="white"/>
</clipPath>
</defs>
</svg>
